<svg width="20" height="20" viewBox="0 0 20 20" fill="none" xmlns="http://www.w3.org/2000/svg">
<mask id="mask0_479_3173" style="mask-type:alpha" maskUnits="userSpaceOnUse" x="0" y="0" width="20" height="20">
<rect width="20" height="20" fill="#D9D9D9"/>
</mask>
<g mask="url(#mask0_479_3173)">
<path d="M10.4167 9.95837C10.8194 9.51393 11.1285 9.00698 11.3438 8.43754C11.559 7.8681 11.6667 7.27782 11.6667 6.66671C11.6667 6.0556 11.559 5.46532 11.3438 4.89587C11.1285 4.32643 10.8194 3.81949 10.4167 3.37504C11.25 3.48615 11.9444 3.85421 12.5 4.47921C13.0556 5.10421 13.3333 5.83337 13.3333 6.66671C13.3333 7.50004 13.0556 8.22921 12.5 8.85421C11.9444 9.47921 11.25 9.84726 10.4167 9.95837ZM15 16.6667V14.1667C15 13.6667 14.8889 13.191 14.6667 12.7396C14.4444 12.2882 14.1528 11.8889 13.7917 11.5417C14.5 11.7917 15.1562 12.1146 15.7604 12.5105C16.3646 12.9063 16.6667 13.4584 16.6667 14.1667V16.6667H15ZM16.6667 10.8334V9.16671H15V7.50004H16.6667V5.83337H18.3333V7.50004H20V9.16671H18.3333V10.8334H16.6667ZM6.66667 10C5.75 10 4.96528 9.67365 4.3125 9.02087C3.65972 8.3681 3.33333 7.58337 3.33333 6.66671C3.33333 5.75004 3.65972 4.96532 4.3125 4.31254C4.96528 3.65976 5.75 3.33337 6.66667 3.33337C7.58333 3.33337 8.36806 3.65976 9.02083 4.31254C9.67361 4.96532 10 5.75004 10 6.66671C10 7.58337 9.67361 8.3681 9.02083 9.02087C8.36806 9.67365 7.58333 10 6.66667 10ZM0 16.6667V14.3334C0 13.8612 0.121528 13.4271 0.364583 13.0313C0.607639 12.6355 0.930556 12.3334 1.33333 12.125C2.19444 11.6945 3.06944 11.3716 3.95833 11.1563C4.84722 10.941 5.75 10.8334 6.66667 10.8334C7.58333 10.8334 8.48611 10.941 9.375 11.1563C10.2639 11.3716 11.1389 11.6945 12 12.125C12.4028 12.3334 12.7257 12.6355 12.9688 13.0313C13.2118 13.4271 13.3333 13.8612 13.3333 14.3334V16.6667H0ZM6.66667 8.33337C7.125 8.33337 7.51736 8.17018 7.84375 7.84379C8.17014 7.5174 8.33333 7.12504 8.33333 6.66671C8.33333 6.20837 8.17014 5.81601 7.84375 5.48962C7.51736 5.16324 7.125 5.00004 6.66667 5.00004C6.20833 5.00004 5.81597 5.16324 5.48958 5.48962C5.16319 5.81601 5 6.20837 5 6.66671C5 7.12504 5.16319 7.5174 5.48958 7.84379C5.81597 8.17018 6.20833 8.33337 6.66667 8.33337ZM1.66667 15H11.6667V14.3334C11.6667 14.1806 11.6285 14.0417 11.5521 13.9167C11.4757 13.7917 11.375 13.6945 11.25 13.625C10.5 13.25 9.74306 12.9688 8.97917 12.7813C8.21528 12.5938 7.44444 12.5 6.66667 12.5C5.88889 12.5 5.11806 12.5938 4.35417 12.7813C3.59028 12.9688 2.83333 13.25 2.08333 13.625C1.95833 13.6945 1.85764 13.7917 1.78125 13.9167C1.70486 14.0417 1.66667 14.1806 1.66667 14.3334V15Z" fill="#E14946"/>
</g>
</svg>
