<svg width="32" height="32" viewBox="0 0 32 32" fill="none" xmlns="http://www.w3.org/2000/svg">
<path d="M7.30027 25.9293L7.12956 26.1H7.37098H14C14.4968 26.1 14.9 26.5032 14.9 27C14.9 27.4968 14.4968 27.9 14 27.9H5.02797C4.77731 27.9 4.55065 27.7959 4.38746 27.6291L4.38778 27.6287L4.38054 27.6226C4.20875 27.4774 4.1 27.2662 4.1 27V18C4.1 17.5032 4.50323 17.1 5 17.1C5.49668 17.1 5.89985 17.5031 5.9 17.9997C5.9 17.9998 5.9 17.9999 5.9 18L5.868 24.5745L5.86682 24.8176L6.03871 24.6457L12.756 17.9285L14.0286 19.201L7.30027 25.9293ZM24.6997 6.07071L24.8704 5.9H24.629H18C17.5032 5.9 17.1 5.49677 17.1 5C17.1 4.50323 17.5032 4.1 18 4.1H26.972C27.2229 4.1 27.4495 4.20327 27.6125 4.3699L27.6122 4.3702L27.6192 4.37615C27.7913 4.5225 27.9 4.73383 27.9 5V14C27.9 14.4968 27.4968 14.9 27 14.9C26.5033 14.9 26.1001 14.4968 26.1 14.0001C26.1 14.0001 26.1 14 26.1 14L26.132 7.42548L26.1332 7.18239L25.9613 7.35428L19.244 14.0716L17.9714 12.799L24.6997 6.07071ZM4 0.1H28C30.1538 0.1 31.9 1.84623 31.9 4V28C31.9 30.1538 30.1538 31.9 28 31.9H4C1.84623 31.9 0.1 30.1538 0.1 28V4C0.1 1.84623 1.84623 0.1 4 0.1ZM28 30.1C29.1603 30.1 30.1 29.1592 30.1 28V4C30.1 2.83978 29.1602 1.9 28 1.9H4C2.83975 1.9 1.9 2.8408 1.9 4V28C1.9 29.1602 2.83978 30.1 4 30.1H28Z" fill="#E14946" stroke="#E14946" stroke-width="0.2"/>
</svg>
