<svg width="50" height="51" viewBox="0 0 50 51" fill="none" xmlns="http://www.w3.org/2000/svg">
<mask id="mask0_407_5742" style="mask-type:alpha" maskUnits="userSpaceOnUse" x="0" y="0" width="50" height="51">
<rect y="0.5" width="50" height="50" fill="#D9D9D9"/>
</mask>
<g mask="url(#mask0_407_5742)">
<path d="M24.9997 44.25C23.8538 44.25 22.8729 43.842 22.057 43.026C21.241 42.2101 20.833 41.2292 20.833 40.0833C20.833 38.9375 21.241 37.9566 22.057 37.1406C22.8729 36.3247 23.8538 35.9167 24.9997 35.9167C26.1455 35.9167 27.1264 36.3247 27.9424 37.1406C28.7584 37.9566 29.1663 38.9375 29.1663 40.0833C29.1663 41.2292 28.7584 42.2101 27.9424 43.026C27.1264 43.842 26.1455 44.25 24.9997 44.25ZM20.833 31.75V6.75H29.1663V31.75H20.833Z" fill="#A56B01"/>
</g>
</svg>
