<svg width="368" height="48" viewBox="0 0 368 48" fill="none" xmlns="http://www.w3.org/2000/svg">
<g clip-path="url(#clip0_406_6456)">
<path d="M228.158 43.8716C262.896 44.1221 289.461 43.9551 315.855 42.0349C325.391 41.367 334.756 40.1147 343.952 38.8624C348.038 38.278 351.955 37.1091 355.361 35.8568C361.15 33.7696 361.491 31.5155 356.382 29.0943C353.147 27.5081 349.23 26.0888 345.314 24.8365C334.926 21.664 323.517 19.4933 312.108 17.4896C283.841 12.5639 254.552 9.39133 224.923 7.13717C191.206 4.63255 157.49 3.54722 123.433 4.04814C98.4012 4.38209 73.3693 5.46743 48.6781 7.38764C34.7147 8.47297 20.7514 9.6418 6.78807 10.7271C6.61778 10.7271 6.4475 10.7271 6.27721 10.8106C2.70124 11.0611 0.487536 10.5602 0.146967 9.47482C-0.534172 8.38948 1.16867 7.72159 4.91494 7.30415C28.7548 5.04999 52.7649 2.79583 76.9453 1.62701C102.999 0.3747 129.052 -0.293199 155.276 0.124238C199.721 0.792136 243.484 3.79768 286.566 9.47482C303.594 11.729 320.282 14.4006 336.289 18.1575C343.611 19.9107 350.593 22.0814 357.404 24.2521C360.299 25.1704 362.853 26.6732 364.897 28.0925C369.494 31.265 368.983 34.855 363.364 37.6101C360.129 39.1963 356.042 40.5321 351.785 41.534C341.908 43.9551 331.18 44.9569 320.452 45.7918C285.714 48.2129 250.976 48.3799 216.068 47.545C201.934 47.2111 187.801 46.8771 173.667 46.3762C155.447 45.7083 137.056 44.9569 118.835 43.9551C101.637 43.0367 84.6081 41.8679 67.5797 40.3651C58.0437 39.5303 48.5078 38.111 39.3124 36.6917C34.885 36.0238 30.6279 34.7715 26.8816 33.4357C18.708 30.3467 18.1971 26.0888 25.1788 22.3319C29.2656 20.0777 34.5445 18.7419 40.1638 17.5731C52.5946 14.985 65.7065 13.4822 78.9887 12.3134C97.2092 10.6436 115.6 10.0592 134.331 10.5602C138.929 10.6436 140.972 11.3115 140.802 12.5639C140.632 13.6492 138.588 14.1501 134.331 14.2336C123.263 14.4006 112.194 14.4006 101.126 14.818C82.2241 15.5694 63.6631 17.3226 45.9535 20.6621C41.8667 21.4135 37.9501 22.4154 34.3742 23.5842C26.2005 26.4228 26.5411 29.1778 35.2256 31.432C39.3124 32.5173 43.7398 33.3522 48.3375 34.0201C62.4711 36.1908 76.9453 37.4431 91.5898 38.278C119.346 39.7807 147.273 41.2835 175.029 42.3688C195.293 43.2872 215.898 43.5377 228.158 43.8716Z" fill="#74585C"/>
</g>
<defs>
<clipPath id="clip0_406_6456">
<rect width="368" height="48" fill="white"/>
</clipPath>
</defs>
</svg>
