<svg width="16" height="14" viewBox="0 0 16 14" fill="none" xmlns="http://www.w3.org/2000/svg">
<path d="M6.74999 2H14.875M6.74999 2C6.74999 2.33152 6.61829 2.64946 6.38387 2.88388C6.14945 3.1183 5.83151 3.24999 5.49999 3.24999C5.16847 3.24999 4.85053 3.1183 4.61611 2.88388C4.38169 2.64946 4.24999 2.33152 4.24999 2M6.74999 2C6.74999 1.66848 6.61829 1.35054 6.38387 1.11612C6.14945 0.881696 5.83151 0.75 5.49999 0.75C5.16847 0.75 4.85053 0.881696 4.61611 1.11612C4.38169 1.35054 4.24999 1.66848 4.24999 2M4.24999 2H1.125M6.74999 12H14.875M6.74999 12C6.74999 12.3315 6.61829 12.6494 6.38387 12.8839C6.14945 13.1183 5.83151 13.25 5.49999 13.25C5.16847 13.25 4.85053 13.1183 4.61611 12.8839C4.38169 12.6494 4.24999 12.3315 4.24999 12M6.74999 12C6.74999 11.6685 6.61829 11.3505 6.38387 11.1161C6.14945 10.8817 5.83151 10.75 5.49999 10.75C5.16847 10.75 4.85053 10.8817 4.61611 11.1161C4.38169 11.3505 4.24999 11.6685 4.24999 12M4.24999 12H1.125M11.75 6.99999H14.875M11.75 6.99999C11.75 7.33151 11.6183 7.64945 11.3839 7.88387C11.1494 8.11829 10.8315 8.24998 10.5 8.24998C10.1685 8.24998 9.85052 8.11829 9.6161 7.88387C9.38168 7.64945 9.24998 7.33151 9.24998 6.99999M11.75 6.99999C11.75 6.66847 11.6183 6.35052 11.3839 6.1161C11.1494 5.88168 10.8315 5.74999 10.5 5.74999C10.1685 5.74999 9.85052 5.88168 9.6161 6.1161C9.38168 6.35052 9.24998 6.66847 9.24998 6.99999M9.24998 6.99999H1.125" stroke="#636363" stroke-width="1.5" stroke-linecap="round" stroke-linejoin="round"/>
</svg>
