<svg width="33" height="32" viewBox="0 0 33 32" fill="none" xmlns="http://www.w3.org/2000/svg">
<mask id="mask0_275_2831" style="mask-type:alpha" maskUnits="userSpaceOnUse" x="0" y="0" width="33" height="32">
<rect x="0.5" width="32" height="32" fill="#D9D9D9"/>
</mask>
<g mask="url(#mask0_275_2831)">
<path d="M17.1667 15.9334C17.8111 15.2223 18.3056 14.4112 18.65 13.5C18.9944 12.5889 19.1667 11.6445 19.1667 10.6667C19.1667 9.68893 18.9944 8.74448 18.65 7.83337C18.3056 6.92226 17.8111 6.11115 17.1667 5.40004C18.5 5.57782 19.6111 6.16671 20.5 7.16671C21.3889 8.16671 21.8333 9.33337 21.8333 10.6667C21.8333 12 21.3889 13.1667 20.5 14.1667C19.6111 15.1667 18.5 15.7556 17.1667 15.9334ZM24.5 26.6667V22.6667C24.5 21.8667 24.3222 21.1056 23.9667 20.3834C23.6111 19.6612 23.1444 19.0223 22.5667 18.4667C23.7 18.8667 24.75 19.3834 25.7167 20.0167C26.6833 20.65 27.1667 21.5334 27.1667 22.6667V26.6667H24.5ZM27.1667 17.3334V14.6667H24.5V12H27.1667V9.33337H29.8333V12H32.5V14.6667H29.8333V17.3334H27.1667ZM11.1667 16C9.7 16 8.44445 15.4778 7.4 14.4334C6.35556 13.3889 5.83333 12.1334 5.83333 10.6667C5.83333 9.20004 6.35556 7.94449 7.4 6.90004C8.44445 5.8556 9.7 5.33337 11.1667 5.33337C12.6333 5.33337 13.8889 5.8556 14.9333 6.90004C15.9778 7.94449 16.5 9.20004 16.5 10.6667C16.5 12.1334 15.9778 13.3889 14.9333 14.4334C13.8889 15.4778 12.6333 16 11.1667 16ZM0.5 26.6667V22.9334C0.5 22.1778 0.694444 21.4834 1.08333 20.85C1.47222 20.2167 1.98889 19.7334 2.63333 19.4C4.01111 18.7112 5.41111 18.1945 6.83333 17.85C8.25556 17.5056 9.7 17.3334 11.1667 17.3334C12.6333 17.3334 14.0778 17.5056 15.5 17.85C16.9222 18.1945 18.3222 18.7112 19.7 19.4C20.3444 19.7334 20.8611 20.2167 21.25 20.85C21.6389 21.4834 21.8333 22.1778 21.8333 22.9334V26.6667H0.5ZM11.1667 13.3334C11.9 13.3334 12.5278 13.0723 13.05 12.55C13.5722 12.0278 13.8333 11.4 13.8333 10.6667C13.8333 9.93337 13.5722 9.3056 13.05 8.78337C12.5278 8.26115 11.9 8.00004 11.1667 8.00004C10.4333 8.00004 9.80556 8.26115 9.28333 8.78337C8.76111 9.3056 8.5 9.93337 8.5 10.6667C8.5 11.4 8.76111 12.0278 9.28333 12.55C9.80556 13.0723 10.4333 13.3334 11.1667 13.3334ZM3.16667 24H19.1667V22.9334C19.1667 22.6889 19.1056 22.4667 18.9833 22.2667C18.8611 22.0667 18.7 21.9112 18.5 21.8C17.3 21.2 16.0889 20.75 14.8667 20.45C13.6444 20.15 12.4111 20 11.1667 20C9.92222 20 8.68889 20.15 7.46667 20.45C6.24444 20.75 5.03333 21.2 3.83333 21.8C3.63333 21.9112 3.47222 22.0667 3.35 22.2667C3.22778 22.4667 3.16667 22.6889 3.16667 22.9334V24Z" fill="#E14946"/>
</g>
</svg>
