<svg width="32" height="32" viewBox="0 0 32 32" fill="none" xmlns="http://www.w3.org/2000/svg">
<path d="M23.7117 14.2774C24.5197 15.095 25.1961 16.0327 25.7171 17.0574C25.7967 17.2133 25.8449 17.3834 25.8589 17.5579C25.8728 17.7325 25.8522 17.908 25.7983 18.0746C25.7444 18.2412 25.6582 18.3956 25.5446 18.5288C25.431 18.6621 25.2923 18.7717 25.1364 18.8514C24.9805 18.931 24.8104 18.9792 24.6359 18.9932C24.4613 19.0071 24.2857 18.9865 24.1192 18.9326C23.9526 18.8787 23.7982 18.7925 23.665 18.6789C23.5317 18.5653 23.4221 18.4266 23.3424 18.2707C22.9483 17.4948 22.437 16.7842 21.8264 16.164C20.9137 15.251 19.7976 14.5672 18.5696 14.1687C17.3416 13.7703 16.0367 13.6685 14.7617 13.8717C13.4868 14.0749 12.2782 14.5773 11.2349 15.3378C10.1916 16.0983 9.34339 17.0951 8.75974 18.2467C8.59554 18.5541 8.31747 18.7851 7.9851 18.89C7.65273 18.9949 7.29248 18.9656 6.98151 18.8082C6.67053 18.6508 6.43356 18.3778 6.32133 18.0479C6.2091 17.7179 6.23055 17.3571 6.38108 17.0427C7.15495 15.5152 8.27978 14.1928 9.66337 13.1839C11.047 12.175 12.6499 11.5083 14.3409 11.2385C16.0319 10.9687 17.7627 11.1034 19.3916 11.6316C21.0204 12.1599 22.5009 13.0665 23.7117 14.2774ZM20.9797 18.2667C21.5931 18.88 22.0971 19.632 22.4477 20.432C22.518 20.5924 22.5561 20.7651 22.5596 20.9402C22.5632 21.1153 22.5323 21.2893 22.4686 21.4525C22.4049 21.6156 22.3097 21.7646 22.1884 21.8909C22.0671 22.0172 21.9221 22.1184 21.7617 22.1887C21.6014 22.259 21.4287 22.297 21.2536 22.3006C21.0785 22.3042 20.9045 22.2732 20.7413 22.2095C20.5782 22.1458 20.4292 22.0506 20.3029 21.9293C20.1766 21.8081 20.0754 21.6631 20.0051 21.5027C19.7866 21.0006 19.478 20.5428 19.0944 20.152C18.286 19.3437 17.1896 18.8896 16.0464 18.8896C14.9032 18.8896 13.8068 19.3437 12.9984 20.152C12.6194 20.5369 12.3156 20.9891 12.1024 21.4854C12.0336 21.6478 11.9332 21.795 11.8071 21.9184C11.681 22.0418 11.5316 22.1389 11.3677 22.2042C11.2037 22.2694 11.0285 22.3014 10.8521 22.2985C10.6757 22.2955 10.5016 22.2575 10.34 22.1867C10.1783 22.116 10.0324 22.0138 9.9105 21.8863C9.78864 21.7587 9.69331 21.6082 9.63003 21.4435C9.56676 21.2788 9.53681 21.1031 9.54191 20.9268C9.54701 20.7504 9.58706 20.5768 9.65974 20.416C10.006 19.6153 10.4989 18.8863 11.1131 18.2667C12.4215 16.9584 14.1961 16.2235 16.0464 16.2235C17.8967 16.2235 19.6713 16.9584 20.9797 18.2667ZM27.2251 11.0654C27.9024 11.7427 28.5411 12.5147 29.0971 13.32C29.295 13.6111 29.3699 13.9687 29.3052 14.3148C29.2405 14.6608 29.0416 14.9673 28.7519 15.1672C28.4622 15.3672 28.1051 15.4444 27.7586 15.3821C27.4121 15.3199 27.1044 15.1231 26.9024 14.8347C26.4357 14.16 25.8997 13.5107 25.3397 12.9507C20.1771 7.78804 11.8064 7.78804 6.64241 12.9507C6.10908 13.4827 5.57974 14.132 5.09574 14.8307C4.89418 15.1214 4.5854 15.3201 4.23733 15.3831C3.88926 15.4461 3.53042 15.3683 3.23974 15.1667C2.94907 14.9651 2.75037 14.6564 2.68735 14.3083C2.62434 13.9602 2.70218 13.6014 2.90374 13.3107C3.47441 12.4867 4.10374 11.7174 4.75708 11.0654C10.9611 4.86004 21.0211 4.86004 27.2251 11.0654ZM17.4144 21.9214C17.6048 22.1061 17.7566 22.3269 17.8609 22.5709C17.9653 22.8148 18.02 23.0771 18.0221 23.3424C18.0241 23.6077 17.9734 23.8708 17.8728 24.1163C17.7722 24.3618 17.6238 24.5849 17.4363 24.7726C17.2487 24.9602 17.0257 25.1087 16.7802 25.2094C16.5347 25.3101 16.2717 25.3609 16.0064 25.359C15.7411 25.3571 15.4788 25.3025 15.2348 25.1983C14.9908 25.0941 14.7699 24.9424 14.5851 24.752C14.2189 24.375 14.0157 23.869 14.0195 23.3433C14.0233 22.8177 14.2337 22.3147 14.6053 21.9429C14.9769 21.5711 15.4798 21.3605 16.0054 21.3565C16.5311 21.3524 17.0372 21.5554 17.4144 21.9214Z" fill="#E14946"/>
</svg>
