<svg width="24" height="27" viewBox="0 0 24 27" fill="none" xmlns="http://www.w3.org/2000/svg">
<path d="M22.0833 0C22.3854 1.27382e-05 22.6772 0.109404 22.9049 0.307945C23.1325 0.506486 23.2806 0.780744 23.3217 1.08L23.3333 1.25V27.9167C23.3332 28.2334 23.2129 28.5382 22.9967 28.7696C22.7805 29.0011 22.4845 29.1418 22.1685 29.1634C21.8526 29.185 21.5402 29.0858 21.2945 28.8859C21.0488 28.6861 20.8882 28.4004 20.845 28.0867L20.8333 27.9167V19.5833H17.0833C16.7813 19.5833 16.4894 19.4739 16.2618 19.2754C16.0341 19.0768 15.8861 18.8026 15.845 18.5033L15.8333 18.3333V6.25C15.8333 4.5924 16.4918 3.00268 17.6639 1.83058C18.836 0.65848 20.4257 0 22.0833 0ZM12.0833 0C12.3854 1.27382e-05 12.6772 0.109404 12.9049 0.307945C13.1325 0.506486 13.2806 0.780744 13.3217 1.08L13.3333 1.25V7.91667C13.3333 11.1717 11 13.88 7.91667 14.4667V27.9167C7.91657 28.2334 7.79626 28.5382 7.58004 28.7696C7.36383 29.0011 7.06784 29.1418 6.75187 29.1634C6.4359 29.185 6.12351 29.0858 5.87783 28.8859C5.63216 28.6861 5.4715 28.4004 5.42833 28.0867L5.41667 27.9167V14.4667C3.95128 14.1865 2.62213 13.4231 1.6417 12.2986C0.661275 11.174 0.0861728 9.75323 0.00833352 8.26333L0 7.91667V1.25C9.7071e-05 0.933294 0.120407 0.628432 0.336621 0.397014C0.552834 0.165596 0.848831 0.0248768 1.1648 0.00329018C1.48077 -0.0182965 1.79315 0.0808587 2.03883 0.280721C2.28451 0.480583 2.44516 0.76625 2.48833 1.08L2.5 1.25V7.91667C2.5 9.78333 3.72667 11.3617 5.41667 11.8933V1.25C5.41676 0.933294 5.53707 0.628432 5.75329 0.397014C5.9695 0.165596 6.2655 0.0248768 6.58147 0.00329018C6.89744 -0.0182965 7.20982 0.0808587 7.4555 0.280721C7.70118 0.480583 7.86183 0.76625 7.905 1.08L7.91667 1.25V11.8917C8.71199 11.641 9.41391 11.1577 9.93175 10.5041C10.4496 9.85044 10.7596 9.05658 10.8217 8.225L10.8333 7.91667V1.25C10.8333 0.918479 10.965 0.600537 11.1994 0.366116C11.4339 0.131696 11.7518 0 12.0833 0ZM20.8333 17.0833V2.71333C20.1482 2.95581 19.5482 3.392 19.1062 3.96892C18.6642 4.54585 18.3992 5.23869 18.3433 5.96333L18.3333 6.25V17.0833H20.8333Z" fill="#E14946"/>
</svg>
