<svg width="20" height="20" viewBox="0 0 20 20" fill="none" xmlns="http://www.w3.org/2000/svg">
<mask id="mask0_490_921" style="mask-type:alpha" maskUnits="userSpaceOnUse" x="0" y="0" width="20" height="20">
<rect width="20" height="20" fill="#D9D9D9"/>
</mask>
<g mask="url(#mask0_490_921)">
<path d="M8.14648 9.99998C7.64648 9.99998 7.22982 9.81248 6.89648 9.43748C6.56315 9.06248 6.43121 8.62498 6.50065 8.12498L6.77148 6.08331C6.8826 5.29165 7.24371 4.6354 7.85482 4.11456C8.46593 3.59373 9.18121 3.33331 10.0007 3.33331C10.8201 3.33331 11.5354 3.59373 12.1465 4.11456C12.7576 4.6354 13.1187 5.29165 13.2298 6.08331L13.5007 8.12498C13.5701 8.62498 13.4382 9.06248 13.1048 9.43748C12.7715 9.81248 12.3548 9.99998 11.8548 9.99998H8.14648ZM8.14648 8.33331H11.8548L11.584 6.33331C11.5284 5.94442 11.3513 5.62498 11.0527 5.37498C10.7541 5.12498 10.4034 4.99998 10.0007 4.99998C9.59787 4.99998 9.24718 5.12498 8.94857 5.37498C8.64996 5.62498 8.47287 5.94442 8.41732 6.33331L8.14648 8.33331ZM3.33398 16.6666V14.3333C3.33398 13.8611 3.45551 13.4271 3.69857 13.0312C3.94162 12.6354 4.26454 12.3333 4.66732 12.125C5.52843 11.6944 6.40343 11.3715 7.29232 11.1562C8.18121 10.941 9.08398 10.8333 10.0007 10.8333C10.9173 10.8333 11.8201 10.941 12.709 11.1562C13.5979 11.3715 14.4729 11.6944 15.334 12.125C15.7368 12.3333 16.0597 12.6354 16.3027 13.0312C16.5458 13.4271 16.6673 13.8611 16.6673 14.3333V16.6666H3.33398ZM5.00065 15H15.0007V14.3333C15.0007 14.1805 14.9625 14.0416 14.8861 13.9166C14.8097 13.7916 14.709 13.6944 14.584 13.625C13.834 13.25 13.077 12.9687 12.3132 12.7812C11.5493 12.5937 10.7784 12.5 10.0007 12.5C9.22287 12.5 8.45204 12.5937 7.68815 12.7812C6.92426 12.9687 6.16732 13.25 5.41732 13.625C5.29232 13.6944 5.19162 13.7916 5.11523 13.9166C5.03885 14.0416 5.00065 14.1805 5.00065 14.3333V15Z" fill="#E14946"/>
</g>
</svg>
