<svg width="20" height="20" viewBox="0 0 20 20" fill="none" xmlns="http://www.w3.org/2000/svg">
<path d="M13.2077 6.54534L13.2087 6.54636L13.2176 6.55504L13.2187 6.55613L13.2209 6.55823C13.6037 6.92614 14.0713 7.37569 14.4812 7.9761L14.4818 7.97702C15.0015 8.74747 15.2505 9.66266 15.1906 10.5841C15.1972 10.6564 15.2 10.7287 15.2 10.8008V15.6836C15.2 16.1482 15.0747 16.6043 14.8372 17.0061C14.5997 17.4078 14.2584 17.7408 13.8482 17.9721C13.438 18.2034 12.973 18.3249 12.5 18.3249C12.0644 18.3249 11.6356 18.2218 11.2501 18.0249C10.8647 18.2222 10.4358 18.3254 10 18.325M13.2077 6.54534L11.5 2.5L11.4999 2.3L8.50011 2.3M13.2077 6.54534C12.7255 6.08137 12.4304 5.77821 12.2928 5.43798M13.2077 6.54534L12.2928 5.43798M10 18.325C9.56424 18.3254 9.13527 18.2222 8.74988 18.0249C8.36441 18.2218 7.93564 18.3249 7.50002 18.3249C7.02698 18.3249 6.56201 18.2034 6.1518 17.9721C5.74157 17.7408 5.40031 17.4078 5.1628 17.0061C4.92527 16.6043 4.80001 16.1482 4.8 15.6836V10.8008C4.8 10.7286 4.80278 10.6564 4.80935 10.5835C4.80327 10.4934 4.80015 10.4031 4.8 10.3128L4.8 10.3125C4.8 8.94926 5.46895 7.74373 6.49484 6.9165C6.57855 6.82983 6.66133 6.74611 6.74001 6.66655C6.76568 6.64059 6.79091 6.61507 6.81559 6.59004L6.83956 6.56573L6.84182 6.56463C7.30241 6.09986 7.5847 5.79456 7.715 5.44254C7.42157 5.29341 7.17711 5.06274 7.01402 4.77686C6.82006 4.43687 6.75381 4.04076 6.82733 3.65749C6.90083 3.27427 7.10915 2.92924 7.41493 2.68169C7.72057 2.43424 8.1045 2.29954 8.50011 2.3M10 18.325C10.0001 18.325 10.0001 18.325 10.0002 18.325L10 18.125L9.9998 18.325C9.99987 18.325 9.99993 18.325 10 18.325ZM8.50011 2.3C8.50015 2.3 8.5002 2.3 8.50025 2.3L8.5 2.5V2.3H8.50011ZM12.2928 5.43798C12.5836 5.28804 12.8256 5.05776 12.987 4.77312C13.1797 4.43319 13.245 4.03764 13.1711 3.65509C13.0971 3.27261 12.8888 2.92836 12.5835 2.68132C12.2782 2.43438 11.895 2.29983 11.5 2.3L12.2408 5.27979C12.2546 5.33384 12.2719 5.38634 12.2928 5.43798ZM6.01 10.5527C6.01256 10.583 6.01222 10.6134 6.009 10.6436C6.00316 10.6958 6.00016 10.7483 6 10.8008M6.01 10.5527L6.20945 10.5379C6.20943 10.5376 6.2094 10.5373 6.20938 10.537M6.01 10.5527C5.95101 9.7602 6.20427 8.9756 6.718 8.35937M6.01 10.5527L6.20929 10.5359C6.20932 10.5362 6.20935 10.5366 6.20938 10.537M6.20938 10.537C6.21291 10.5795 6.2124 10.6223 6.20787 10.6648L6.20776 10.6658C6.20274 10.7107 6.20015 10.7559 6.2 10.8011M6.20938 10.537C6.1568 9.82752 6.37202 9.1243 6.81355 8.55937M6.2 10.8011V10.8008H6M6.2 10.8011C6.2 10.8012 6.2 10.8013 6.2 10.8014L6 10.8008M6.2 10.8011V14.0187M6 10.8008V14.0187H6.2M6.2 14.0187H13.8M6.2 14.0187V14.2187M6.2 14.2187H13.8V14.0187M6.2 14.2187L13.461 8.59766C13.858 9.17245 14.0445 9.86143 13.99 10.5527C13.9878 10.583 13.9885 10.6134 13.992 10.6436M6.2 14.2187L6.718 8.35937M13.8 14.0187H14V10.8008C14 10.7471 13.997 10.6953 13.992 10.6436M13.8 14.0187V10.8008C13.8 10.7552 13.7975 10.7106 13.7931 10.6646M13.992 10.6436L13.7929 10.6628C13.793 10.6634 13.793 10.664 13.7931 10.6646M13.992 10.6436L13.7934 10.6669C13.7933 10.6662 13.7932 10.6654 13.7931 10.6646M6.718 8.35937L6.87162 8.48744C6.85185 8.51116 6.83249 8.53514 6.81355 8.55937M6.718 8.35937V8.55937H6.81355M6.81355 8.55937H13.1878C13.2249 8.6092 13.261 8.65971 13.2961 8.71087L13.2964 8.71133C13.6676 9.24858 13.8414 9.89194 13.7906 10.537L13.7905 10.5381C13.7874 10.5803 13.7883 10.6226 13.7931 10.6646M10.8867 5.62969C11.0594 6.2855 11.4651 6.77169 11.8735 7.18281H8.17916C8.57256 6.76649 8.95457 6.28104 9.1172 5.62969H10.8867ZM6.2 15.6836C6.2 15.6836 6.2 15.6836 6.2 15.6835V15.3953H13.8V15.6835C13.8 15.6836 13.8 15.6836 13.8 15.6836C13.7999 15.9208 13.7313 16.1535 13.6015 16.355C13.4717 16.5565 13.2858 16.7188 13.0647 16.8225C12.8436 16.9263 12.5966 16.9671 12.3524 16.9399C12.1083 16.9128 11.8775 16.8189 11.6864 16.6697C11.5621 16.5723 11.4081 16.5196 11.25 16.5196C11.0919 16.5196 10.9379 16.5723 10.8136 16.6697C10.5908 16.8441 10.309 16.9484 10 16.9484C9.69097 16.9484 9.40917 16.8441 9.18639 16.6697C9.06207 16.5723 8.90811 16.5196 8.75 16.5196C8.59189 16.5196 8.43793 16.5723 8.31361 16.6697C8.12253 16.8189 7.89171 16.9128 7.64761 16.9399C7.40339 16.9671 7.15643 16.9263 6.9353 16.8225C6.71421 16.7188 6.52831 16.5565 6.39848 16.355C6.2687 16.1535 6.20006 15.9208 6.2 15.6836ZM11.5 4.25313H8.5C8.41892 4.25313 8.3421 4.22163 8.28618 4.16702C8.23043 4.11257 8.2 4.03975 8.2 3.96484C8.2 3.88994 8.23043 3.81711 8.28618 3.76267C8.3421 3.70806 8.41892 3.67656 8.5 3.67656H11.5C11.5811 3.67656 11.6579 3.70806 11.7138 3.76267C11.7696 3.81711 11.8 3.88994 11.8 3.96484C11.8 4.03975 11.7696 4.11257 11.7138 4.16702C11.6579 4.22163 11.5811 4.25313 11.5 4.25313Z" fill="#E14946" stroke="#E14946" stroke-width="0.4"/>
</svg>
