<svg width="32" height="32" viewBox="0 0 32 32" fill="none" xmlns="http://www.w3.org/2000/svg">
<mask id="mask0_222_1293" style="mask-type:alpha" maskUnits="userSpaceOnUse" x="0" y="0" width="32" height="32">
<rect width="32" height="32" fill="#D9D9D9"/>
</mask>
<g mask="url(#mask0_222_1293)">
<path d="M16.6667 15.9334C17.3111 15.2223 17.8056 14.4112 18.15 13.5C18.4944 12.5889 18.6667 11.6445 18.6667 10.6667C18.6667 9.68893 18.4944 8.74448 18.15 7.83337C17.8056 6.92226 17.3111 6.11115 16.6667 5.40004C18 5.57782 19.1111 6.16671 20 7.16671C20.8889 8.16671 21.3333 9.33337 21.3333 10.6667C21.3333 12 20.8889 13.1667 20 14.1667C19.1111 15.1667 18 15.7556 16.6667 15.9334ZM24 26.6667V22.6667C24 21.8667 23.8222 21.1056 23.4667 20.3834C23.1111 19.6612 22.6444 19.0223 22.0667 18.4667C23.2 18.8667 24.25 19.3834 25.2167 20.0167C26.1833 20.65 26.6667 21.5334 26.6667 22.6667V26.6667H24ZM26.6667 17.3334V14.6667H24V12H26.6667V9.33337H29.3333V12H32V14.6667H29.3333V17.3334H26.6667ZM10.6667 16C9.2 16 7.94445 15.4778 6.9 14.4334C5.85556 13.3889 5.33333 12.1334 5.33333 10.6667C5.33333 9.20004 5.85556 7.94449 6.9 6.90004C7.94445 5.8556 9.2 5.33337 10.6667 5.33337C12.1333 5.33337 13.3889 5.8556 14.4333 6.90004C15.4778 7.94449 16 9.20004 16 10.6667C16 12.1334 15.4778 13.3889 14.4333 14.4334C13.3889 15.4778 12.1333 16 10.6667 16ZM0 26.6667V22.9334C0 22.1778 0.194444 21.4834 0.583333 20.85C0.972222 20.2167 1.48889 19.7334 2.13333 19.4C3.51111 18.7112 4.91111 18.1945 6.33333 17.85C7.75556 17.5056 9.2 17.3334 10.6667 17.3334C12.1333 17.3334 13.5778 17.5056 15 17.85C16.4222 18.1945 17.8222 18.7112 19.2 19.4C19.8444 19.7334 20.3611 20.2167 20.75 20.85C21.1389 21.4834 21.3333 22.1778 21.3333 22.9334V26.6667H0ZM10.6667 13.3334C11.4 13.3334 12.0278 13.0723 12.55 12.55C13.0722 12.0278 13.3333 11.4 13.3333 10.6667C13.3333 9.93337 13.0722 9.3056 12.55 8.78337C12.0278 8.26115 11.4 8.00004 10.6667 8.00004C9.93333 8.00004 9.30556 8.26115 8.78333 8.78337C8.26111 9.3056 8 9.93337 8 10.6667C8 11.4 8.26111 12.0278 8.78333 12.55C9.30556 13.0723 9.93333 13.3334 10.6667 13.3334ZM2.66667 24H18.6667V22.9334C18.6667 22.6889 18.6056 22.4667 18.4833 22.2667C18.3611 22.0667 18.2 21.9112 18 21.8C16.8 21.2 15.5889 20.75 14.3667 20.45C13.1444 20.15 11.9111 20 10.6667 20C9.42222 20 8.18889 20.15 6.96667 20.45C5.74444 20.75 4.53333 21.2 3.33333 21.8C3.13333 21.9112 2.97222 22.0667 2.85 22.2667C2.72778 22.4667 2.66667 22.6889 2.66667 22.9334V24Z" fill="#E14946"/>
</g>
</svg>
