<svg width="50" height="50" viewBox="0 0 50 50" fill="none" xmlns="http://www.w3.org/2000/svg">
<mask id="mask0_407_5736" style="mask-type:alpha" maskUnits="userSpaceOnUse" x="0" y="0" width="50" height="50">
<rect width="50" height="50" fill="#D9D9D9"/>
</mask>
<g mask="url(#mask0_407_5736)">
<path d="M22.083 33.3333C22.083 30.5208 22.3347 28.4983 22.8382 27.2656C23.3417 26.033 24.4094 24.6875 26.0413 23.2292C27.465 21.9792 28.55 20.8941 29.2966 19.974C30.0431 19.0538 30.4163 18.0035 30.4163 16.8229C30.4163 15.3993 29.9389 14.2188 28.9841 13.2813C28.0292 12.3438 26.7011 11.875 24.9997 11.875C23.2288 11.875 21.8834 12.4132 20.9632 13.4896C20.0431 14.566 19.392 15.6597 19.0101 16.7708L13.6455 14.4792C14.3747 12.2569 15.7115 10.3299 17.6559 8.69792C19.6004 7.06597 22.0483 6.25 24.9997 6.25C28.6455 6.25 31.4493 7.26562 33.4111 9.29688C35.3729 11.3281 36.3538 13.7674 36.3538 16.6146C36.3538 18.3507 35.9806 19.8351 35.2341 21.0677C34.4875 22.3003 33.3156 23.6979 31.7184 25.2604C30.017 26.8924 28.984 28.1337 28.6195 28.9844C28.2549 29.8351 28.0726 31.2847 28.0726 33.3333H22.083ZM24.9997 45.8333C23.8538 45.8333 22.8729 45.4254 22.057 44.6094C21.241 43.7934 20.833 42.8125 20.833 41.6667C20.833 40.5208 21.241 39.5399 22.057 38.724C22.8729 37.908 23.8538 37.5 24.9997 37.5C26.1455 37.5 27.1264 37.908 27.9424 38.724C28.7584 39.5399 29.1663 40.5208 29.1663 41.6667C29.1663 42.8125 28.7584 43.7934 27.9424 44.6094C27.1264 45.4254 26.1455 45.8333 24.9997 45.8333Z" fill="#A56B01"/>
</g>
</svg>
