<svg width="32" height="32" viewBox="0 0 32 32" fill="none" xmlns="http://www.w3.org/2000/svg">
<mask id="mask0_222_1289" style="mask-type:alpha" maskUnits="userSpaceOnUse" x="0" y="0" width="32" height="32">
<rect width="32" height="32" fill="#D9D9D9"/>
</mask>
<g mask="url(#mask0_222_1289)">
<path d="M16 29.3333C13.6444 29.3333 11.7222 28.9611 10.2333 28.2166C8.74444 27.4722 8 26.5111 8 25.3333C8 24.5555 8.32222 23.8777 8.96667 23.3C9.61111 22.7222 10.5 22.2666 11.6333 21.9333L12.4 24.4666C12.0222 24.5777 11.6778 24.7166 11.3667 24.8833C11.0556 25.05 10.8444 25.2 10.7333 25.3333C11.0222 25.6888 11.6889 26 12.7333 26.2666C13.7778 26.5333 14.8667 26.6666 16 26.6666C17.1333 26.6666 18.2278 26.5333 19.2833 26.2666C20.3389 26 21.0111 25.6888 21.3 25.3333C21.1889 25.2 20.9778 25.05 20.6667 24.8833C20.3556 24.7166 20.0111 24.5777 19.6333 24.4666L20.4 21.9333C21.5333 22.2666 22.4167 22.7222 23.05 23.3C23.6833 23.8777 24 24.5555 24 25.3333C24 26.5111 23.2556 27.4722 21.7667 28.2166C20.2778 28.9611 18.3556 29.3333 16 29.3333ZM16 20.4333C16.4 19.7 16.8222 19.0277 17.2667 18.4166C17.7111 17.8055 18.1444 17.2222 18.5667 16.6666C19.3889 15.6 20.0444 14.6388 20.5333 13.7833C21.0222 12.9277 21.2667 11.8666 21.2667 10.6C21.2667 9.13329 20.7556 7.88885 19.7333 6.86663C18.7111 5.8444 17.4667 5.33329 16 5.33329C14.5333 5.33329 13.2889 5.8444 12.2667 6.86663C11.2444 7.88885 10.7333 9.13329 10.7333 10.6C10.7333 11.8666 10.9778 12.9277 11.4667 13.7833C11.9556 14.6388 12.6111 15.6 13.4333 16.6666C13.8556 17.2222 14.2889 17.8055 14.7333 18.4166C15.1778 19.0277 15.6 19.7 16 20.4333ZM16 25.3333C15.7556 25.3333 15.5333 25.2611 15.3333 25.1166C15.1333 24.9722 14.9889 24.7777 14.9 24.5333C14.3889 22.9555 13.7444 21.6333 12.9667 20.5666C12.1889 19.5 11.4333 18.4777 10.7 17.5C9.98889 16.5222 9.37222 15.5111 8.85 14.4666C8.32778 13.4222 8.06667 12.1333 8.06667 10.6C8.06667 8.37774 8.83333 6.49996 10.3667 4.96663C11.9 3.43329 13.7778 2.66663 16 2.66663C18.2222 2.66663 20.1 3.43329 21.6333 4.96663C23.1667 6.49996 23.9333 8.37774 23.9333 10.6C23.9333 12.1333 23.6778 13.4222 23.1667 14.4666C22.6556 15.5111 22.0333 16.5222 21.3 17.5C20.5889 18.4777 19.8389 19.5 19.05 20.5666C18.2611 21.6333 17.6111 22.9555 17.1 24.5333C17.0111 24.7777 16.8667 24.9722 16.6667 25.1166C16.4667 25.2611 16.2444 25.3333 16 25.3333ZM16 13.4333C16.7778 13.4333 17.4444 13.1555 18 12.6C18.5556 12.0444 18.8333 11.3777 18.8333 10.6C18.8333 9.82218 18.5556 9.15551 18 8.59996C17.4444 8.0444 16.7778 7.76663 16 7.76663C15.2222 7.76663 14.5556 8.0444 14 8.59996C13.4444 9.15551 13.1667 9.82218 13.1667 10.6C13.1667 11.3777 13.4444 12.0444 14 12.6C14.5556 13.1555 15.2222 13.4333 16 13.4333Z" fill="#E14946"/>
</g>
</svg>
