<svg width="24" height="24" viewBox="0 0 24 24" fill="none" xmlns="http://www.w3.org/2000/svg">
<path d="M23.6821 2.60563C23.8856 2.81024 24 3.08792 24 3.37744C24 3.66696 23.8856 3.94459 23.6821 4.1492L12.8426 15.0577C12.6393 15.2625 12.3634 15.3776 12.0757 15.3776C11.788 15.3776 11.5121 15.2625 11.3088 15.0577L6.97294 10.6943C6.54939 10.268 6.54939 9.57695 6.97294 9.15071C7.39649 8.72448 8.08319 8.72448 8.50674 9.15071L12.0757 12.7423L22.1483 2.60563C22.3516 2.40079 22.6275 2.2857 22.9152 2.2857C23.2029 2.2857 23.4788 2.40079 23.6821 2.60563ZM23.6088 9.60265C23.767 10.3945 23.8469 11.2002 23.8473 12.008C23.8435 17.4236 20.2356 22.1655 15.0414 23.5815C9.84723 24.9975 4.35428 22.7367 1.63479 18.0635C-1.0847 13.3903 -0.356646 7.46306 3.41175 3.59695C7.18014 -0.269165 13.0548 -1.11588 17.75 1.53038C18.2738 1.82558 18.4607 2.49222 18.1673 3.01937C17.874 3.54652 17.2116 3.73455 16.6877 3.43934C12.6842 1.18677 7.66212 2.04508 4.62202 5.50146C1.58193 8.95784 1.34498 14.0787 4.05277 17.8044C6.76057 21.5301 11.6817 22.8544 15.8759 20.9859C20.0701 19.1175 22.4045 14.561 21.4843 10.039C21.4068 9.65703 21.5377 9.26253 21.8276 9.00407C22.1175 8.7456 22.5225 8.66245 22.8899 8.78591C23.2573 8.90938 23.5314 9.22072 23.6088 9.60265Z" fill="#FCD2D9"/>
</svg>
