<svg width="20" height="20" viewBox="0 0 20 20" fill="none" xmlns="http://www.w3.org/2000/svg">
<mask id="mask0_479_3168" style="mask-type:alpha" maskUnits="userSpaceOnUse" x="0" y="0" width="20" height="20">
<rect width="20" height="20" fill="#D9D9D9"/>
</mask>
<g mask="url(#mask0_479_3168)">
<path d="M10 18.3333C8.52778 18.3333 7.32639 18.1007 6.39583 17.6354C5.46528 17.1701 5 16.5694 5 15.8333C5 15.3472 5.20139 14.9236 5.60417 14.5625C6.00694 14.2013 6.5625 13.9166 7.27083 13.7083L7.75 15.2916C7.51389 15.3611 7.29861 15.4479 7.10417 15.552C6.90972 15.6562 6.77778 15.75 6.70833 15.8333C6.88889 16.0555 7.30556 16.25 7.95833 16.4166C8.61111 16.5833 9.29167 16.6666 10 16.6666C10.7083 16.6666 11.3924 16.5833 12.0521 16.4166C12.7118 16.25 13.1319 16.0555 13.3125 15.8333C13.2431 15.75 13.1111 15.6562 12.9167 15.552C12.7222 15.4479 12.5069 15.3611 12.2708 15.2916L12.75 13.7083C13.4583 13.9166 14.0104 14.2013 14.4062 14.5625C14.8021 14.9236 15 15.3472 15 15.8333C15 16.5694 14.5347 17.1701 13.6042 17.6354C12.6736 18.1007 11.4722 18.3333 10 18.3333ZM10 12.7708C10.25 12.3125 10.5139 11.8923 10.7917 11.5104C11.0694 11.1284 11.3403 10.7638 11.6042 10.4166C12.1181 9.74996 12.5278 9.14927 12.8333 8.61454C13.1389 8.07982 13.2917 7.41663 13.2917 6.62496C13.2917 5.70829 12.9722 4.93051 12.3333 4.29163C11.6944 3.65274 10.9167 3.33329 10 3.33329C9.08333 3.33329 8.30556 3.65274 7.66667 4.29163C7.02778 4.93051 6.70833 5.70829 6.70833 6.62496C6.70833 7.41663 6.86111 8.07982 7.16667 8.61454C7.47222 9.14927 7.88194 9.74996 8.39583 10.4166C8.65972 10.7638 8.93056 11.1284 9.20833 11.5104C9.48611 11.8923 9.75 12.3125 10 12.7708ZM10 15.8333C9.84722 15.8333 9.70833 15.7882 9.58333 15.6979C9.45833 15.6076 9.36806 15.4861 9.3125 15.3333C8.99306 14.3472 8.59028 13.5208 8.10417 12.8541C7.61806 12.1875 7.14583 11.5486 6.6875 10.9375C6.24306 10.3263 5.85764 9.6944 5.53125 9.04163C5.20486 8.38885 5.04167 7.58329 5.04167 6.62496C5.04167 5.23607 5.52083 4.06246 6.47917 3.10413C7.4375 2.14579 8.61111 1.66663 10 1.66663C11.3889 1.66663 12.5625 2.14579 13.5208 3.10413C14.4792 4.06246 14.9583 5.23607 14.9583 6.62496C14.9583 7.58329 14.7986 8.38885 14.4792 9.04163C14.1597 9.6944 13.7708 10.3263 13.3125 10.9375C12.8681 11.5486 12.3993 12.1875 11.9062 12.8541C11.4132 13.5208 11.0069 14.3472 10.6875 15.3333C10.6319 15.4861 10.5417 15.6076 10.4167 15.6979C10.2917 15.7882 10.1528 15.8333 10 15.8333ZM10 8.39579C10.4861 8.39579 10.9028 8.22218 11.25 7.87496C11.5972 7.52774 11.7708 7.11107 11.7708 6.62496C11.7708 6.13885 11.5972 5.72218 11.25 5.37496C10.9028 5.02774 10.4861 4.85413 10 4.85413C9.51389 4.85413 9.09722 5.02774 8.75 5.37496C8.40278 5.72218 8.22917 6.13885 8.22917 6.62496C8.22917 7.11107 8.40278 7.52774 8.75 7.87496C9.09722 8.22218 9.51389 8.39579 10 8.39579Z" fill="#E14946"/>
</g>
</svg>
