<svg width="24" height="24" viewBox="0 0 24 24" fill="none" xmlns="http://www.w3.org/2000/svg">
<path fill-rule="evenodd" clip-rule="evenodd" d="M8 3.93552C9.20496 3.33671 10.5632 3 12 3C15.1204 3 17.8699 4.58803 19.4844 7H18C16.3477 7 15 8.34771 15 10C15 10.2652 14.8946 10.5196 14.7071 10.7071C14.5196 10.8946 14.2652 11 14 11C13.4523 11 13 10.5477 13 10C13 9.20435 12.6839 8.44128 12.1213 7.87868C11.5587 7.31607 10.7957 7 10 7C9.46957 7 8.96086 6.78928 8.58579 6.41421C8.21071 6.03914 8 5.53043 8 5V3.93552ZM6.01 5.28275C4.63841 6.50669 3.64406 8.14447 3.22302 10H4.9998C5.79545 10 6.55852 10.3161 7.12113 10.8787C7.68373 11.4413 7.9998 12.2044 7.9998 13V14C7.9998 14.2652 8.10516 14.5196 8.2927 14.7071C8.48024 14.8946 8.73459 15 8.9998 15C9.79545 15 10.5585 15.3161 11.1211 15.8787C11.6837 16.4413 11.9998 17.2043 11.9998 18V21C11.9999 21 11.9999 21 12 21C12.6874 21 13.3568 20.9229 14 20.777V17C14 16.2043 14.3161 15.4413 14.8787 14.8787C15.4413 14.3161 16.2043 14 17 14H20.777C20.9229 13.3568 21 12.6874 21 12C21 10.9481 20.8195 9.93833 20.4879 9H18C17.4523 9 17 9.45228 17 10C17 10.7956 16.6839 11.5587 16.1213 12.1213C15.5587 12.6839 14.7957 13 14 13C12.3477 13 11 11.6523 11 10C11 9.73478 10.8946 9.48043 10.7071 9.29289C10.5196 9.10535 10.2652 9 10 9C8.93913 9 7.92172 8.57857 7.17157 7.82842C6.48835 7.1452 6.07781 6.24028 6.01 5.28275ZM22.1108 7.66016C22.6831 8.99166 23 10.4588 23 12C23 18.0751 18.0751 23 12 23C5.92487 23 1 18.0751 1 12C1 5.92487 5.92487 1 12 1C16.4881 1 20.3484 3.68784 22.059 7.54162C22.0787 7.57977 22.096 7.61935 22.1108 7.66016ZM20.0645 16H17C16.7348 16 16.4804 16.1054 16.2929 16.2929C16.1054 16.4804 16 16.7348 16 17V20.0645C17.7585 19.1906 19.1906 17.7585 20.0645 16ZM9.9998 20.7769V18C9.9998 17.7348 9.89445 17.4804 9.70691 17.2929C9.51937 17.1054 9.26502 17 8.9998 17C8.20415 17 7.44109 16.6839 6.87848 16.1213C6.31588 15.5587 5.9998 14.7957 5.9998 14V13C5.9998 12.7348 5.89445 12.4804 5.70691 12.2929C5.51938 12.1054 5.26502 12 4.9998 12H3C3 16.2831 5.99193 19.8674 9.9998 20.7769Z" fill="#E14946"/>
</svg>
