<svg width="20" height="20" viewBox="0 0 20 20" fill="none" xmlns="http://www.w3.org/2000/svg">
<path d="M16.1547 2.39687C16 2.31562 15.8141 2.32812 15.6703 2.42656C14.2719 3.39531 13.3391 4.91719 13.1109 6.60312L12.6625 9.91719L12.6594 9.93125C12.6031 10.1844 12.7625 10.4344 13.0156 10.4906C13.4516 10.5875 13.7594 10.9812 13.7484 11.4297C13.7375 11.9328 13.2922 12.3438 12.7578 12.3438H12.2891C12.2109 12.3438 12.1328 12.3484 12.0563 12.3563C12.0422 12.3281 12.0297 12.2984 12.0156 12.2687L11.6281 11.5156C10.8687 10.0406 10.4688 8.38594 10.4688 6.72656V0.625C10.4688 0.365625 10.2594 0.15625 10 0.15625C9.74062 0.15625 9.53125 0.365625 9.53125 0.625V6.72656C9.53125 8.38437 9.13125 10.0406 8.37188 11.5141L7.98438 12.2672C7.97031 12.2953 7.95781 12.325 7.94375 12.3547C7.86719 12.3484 7.78906 12.3438 7.71094 12.3438H7.24219C6.70781 12.3438 6.2625 11.9328 6.25 11.4297C6.23906 10.9828 6.54844 10.5875 6.98281 10.4906C7.23594 10.4344 7.39531 10.1844 7.33906 9.93125L6.8875 6.60312C6.65938 4.91719 5.72656 3.39375 4.32813 2.42656C4.18438 2.32812 3.99844 2.31562 3.84375 2.39687C3.69063 2.47813 3.59375 2.6375 3.59375 2.8125V15.1562C3.59375 15.4156 3.80313 15.625 4.0625 15.625H5.9375C6.19688 15.625 6.40625 15.4156 6.40625 15.1562C6.40625 14.8969 6.19688 14.6875 5.9375 14.6875H4.53125V3.81719C5.30313 4.60156 5.81094 5.625 5.95937 6.72969L6.36406 9.72188C5.71875 10.0375 5.29531 10.7078 5.3125 11.4516C5.3375 12.4609 6.20312 13.2812 7.24219 13.2812H7.59687C7.23125 14.6438 7.43281 16.1266 8.19062 17.3469L9.60312 19.6234C9.6875 19.7594 9.8375 19.8438 10 19.8438C10.1625 19.8438 10.3125 19.7594 10.3984 19.6219L11.8109 17.3453C12.5672 16.1266 12.7688 14.6437 12.4047 13.2797H12.7594C13.7969 13.2812 14.6625 12.4609 14.6875 11.4516C14.7047 10.7078 14.2812 10.0375 13.6359 9.72188L14.0406 6.72969C14.1891 5.625 14.6969 4.60313 15.4688 3.81719V14.6875H13.9062C13.6469 14.6875 13.4375 14.8969 13.4375 15.1562C13.4375 15.4156 13.6469 15.625 13.9062 15.625H15.9375C16.1969 15.625 16.4062 15.4156 16.4062 15.1562V2.8125C16.4062 2.6375 16.3094 2.47813 16.1547 2.39687ZM9.20625 11.9438C9.53281 11.3094 9.79844 10.6438 10 9.95938C10.2016 10.6438 10.4672 11.3094 10.7938 11.9438L11.1312 12.6016C10.6719 12.8156 10.2797 13.1484 9.99844 13.5656C9.71719 13.1484 9.325 12.8156 8.86563 12.6016L9.20625 11.9438ZM11.0141 16.8516L10 18.4859L8.98594 16.8516C8.35625 15.8375 8.19531 14.6 8.51406 13.4703C9.11563 13.7672 9.53125 14.3859 9.53125 15.1016V16.0391C9.53125 16.2984 9.74062 16.5078 10 16.5078C10.2594 16.5078 10.4688 16.2984 10.4688 16.0391V15.1016C10.4688 14.3859 10.8844 13.7688 11.4859 13.4703C11.8047 14.6 11.6437 15.8375 11.0141 16.8516Z" fill="black"/>
</svg>
