<svg width="309" height="46" viewBox="0 0 309 46" fill="none" xmlns="http://www.w3.org/2000/svg">
<path d="M190.936 41.4141C219.999 41.6505 242.227 41.4929 264.327 39.6802C272.312 39.0498 280.158 37.8676 287.863 36.6854C291.287 36.1338 294.574 35.0304 297.434 33.8483C302.295 31.878 302.599 29.7501 298.345 27.4646C295.651 25.9672 292.386 24.6274 289.12 23.4452C280.455 20.4504 270.927 18.4014 261.398 16.5099C237.787 11.8601 213.308 8.86527 188.535 6.73738C160.345 4.37306 132.144 3.34852 103.644 3.82138C82.6968 4.13662 61.7434 5.16116 41.068 6.97381C29.3757 7.99835 17.6827 9.1017 5.99045 10.1262C5.84797 10.1262 5.70549 10.1262 5.56231 10.205C2.56818 10.4415 0.720142 9.96862 0.444247 8.94408C-0.116604 7.91954 1.31376 7.28905 4.45176 6.895C24.4176 4.76711 44.5258 2.63922 64.7675 1.53587C86.5771 0.35371 108.382 -0.276775 130.32 0.117278C167.501 0.747764 204.093 3.58495 240.093 8.94408C254.322 11.072 268.262 13.5939 281.624 17.1404C287.736 18.7954 293.559 20.8445 299.24 22.8936C301.655 23.7605 303.779 25.1791 305.477 26.5189C309.298 29.5137 308.84 32.9025 304.116 35.5033C301.395 37.0007 297.965 38.2617 294.394 39.2074C286.11 41.4929 277.126 42.4386 268.143 43.2267C239.057 45.5122 209.99 45.6699 180.789 44.8818C168.966 44.5665 157.143 44.2513 145.322 43.7784C130.082 43.1479 114.701 42.4386 99.4637 41.4929C85.0811 40.626 70.843 39.5226 56.6077 38.104C48.6359 37.3159 40.669 35.9761 32.987 34.6364C29.2882 34.0059 25.7367 32.8237 22.6133 31.5627C15.8001 28.6468 15.4082 24.6274 21.2812 21.0809C24.7195 18.953 29.1475 17.6921 33.859 16.5887C44.2816 14.1456 55.2649 12.727 66.388 11.6236C81.6471 10.0474 97.0397 9.49575 112.708 9.96862C116.554 10.0474 118.258 10.6779 118.106 11.8601C117.954 12.8846 116.24 13.3575 112.677 13.4363C103.415 13.5939 94.1539 13.5939 84.8893 13.988C69.0679 14.6973 53.5231 16.3523 38.6775 19.5047C35.2518 20.214 31.9664 21.1597 28.9646 22.2631C22.1019 24.9426 22.3639 27.5434 29.6114 29.6713C33.0219 30.6958 36.7193 31.4839 40.5607 32.1144C52.3682 34.1635 64.4684 35.3457 76.7146 36.1338C99.926 37.5524 123.28 38.971 146.495 39.9955C163.442 40.8624 180.68 41.0988 190.936 41.4141Z" fill="#F77F7C"/>
</svg>
