<svg width="32" height="32" viewBox="0 0 32 32" fill="none" xmlns="http://www.w3.org/2000/svg">
<path d="M16.0013 26.6667C21.868 26.6667 26.668 21.8667 26.668 16C26.668 10.1334 21.868 5.33335 16.0013 5.33335C10.1346 5.33335 5.33464 10.1334 5.33464 16C5.33464 21.8667 10.1346 26.6667 16.0013 26.6667ZM16.0013 2.66669C23.3346 2.66669 29.3346 8.66669 29.3346 16C29.3346 23.3334 23.3346 29.3334 16.0013 29.3334C8.66797 29.3334 2.66797 23.3334 2.66797 16C2.66797 8.66669 8.66797 2.66669 16.0013 2.66669ZM16.668 17.0667L10.268 20.8L9.33463 18.9334L14.668 15.8667V9.33335H16.668V17.0667Z" fill="#E14946"/>
</svg>
