<svg width="107" height="29" viewBox="0 0 107 29" fill="none" xmlns="http://www.w3.org/2000/svg">
<path fill-rule="evenodd" clip-rule="evenodd" d="M54.1527 12.773H51.2657C51.0129 12.773 50.8867 12.6422 50.8867 12.3809V4.2814C50.8867 4.02011 51.0129 3.8896 51.2657 3.8896H53.7216C54.8015 3.8896 55.6244 4.0638 56.1904 4.41219C56.7569 4.7603 57.0398 5.26569 57.0398 5.92752V6.64615C57.0398 7.25556 56.7438 7.7391 56.1516 8.09623C57.0311 8.47056 57.4709 8.99314 57.4709 9.66371V10.6303C57.4709 11.3098 57.1834 11.8365 56.6087 12.2111C56.0339 12.5854 55.2151 12.773 54.1527 12.773ZM53.7216 5.58787H53.0423V7.46907H53.7216C54.0875 7.46907 54.3769 7.39289 54.5904 7.24027C54.8037 7.08819 54.9104 6.87659 54.9104 6.60683V6.26718C54.9104 6.02336 54.8211 5.84916 54.6426 5.74459C54.464 5.64002 54.1571 5.58787 53.7216 5.58787ZM54.1527 9.06277H53.0423V11.0745H54.1527C54.5273 11.0745 54.8189 11.0029 55.0281 10.8591C55.237 10.7154 55.3415 10.5085 55.3415 10.2387V9.82071C55.3415 9.59409 55.2304 9.41116 55.0084 9.27191C54.7862 9.13239 54.5009 9.06277 54.1527 9.06277ZM60.8022 4.2814V10.2647C60.8022 10.5347 60.9068 10.7436 61.1157 10.8918C61.3248 11.0398 61.6123 11.1138 61.9782 11.1138C62.3438 11.1138 62.6332 11.0398 62.8464 10.8918C63.0602 10.7436 63.1667 10.5347 63.1667 10.2647V4.2814C63.1667 4.02011 63.2928 3.8896 63.5456 3.8896H64.9564C65.2002 3.8896 65.3223 4.02011 65.3223 4.2814V10.6436C65.3223 11.3317 65.0285 11.8758 64.4404 12.2766C63.8525 12.6769 63.0318 12.8776 61.9782 12.8776C60.933 12.8776 60.1163 12.6769 59.5285 12.2766C58.9407 11.8758 58.6463 11.3317 58.6463 10.6436V4.2814C58.6463 4.02011 58.7727 3.8896 59.0253 3.8896H60.4363C60.6802 3.8896 60.8022 4.02011 60.8022 4.2814ZM70.8875 6.50226V6.30622C70.8875 5.7577 70.5476 5.4833 69.8683 5.4833C69.1805 5.4833 68.8365 5.7577 68.8365 6.30622V6.437C68.8365 6.70703 68.9757 6.89433 69.2545 6.99891L71.4492 7.7432C71.9715 7.91766 72.3745 8.17677 72.6576 8.5208C72.9405 8.86482 73.0822 9.26317 73.0822 9.71614V10.6436C73.0822 11.3489 72.7968 11.8977 72.2265 12.2895C71.6558 12.6816 70.8526 12.8776 69.8161 12.8776C68.7797 12.8776 67.9762 12.6816 67.4061 12.2895C66.8354 11.8977 66.5504 11.3489 66.5504 10.6436V9.76829C66.5504 9.50699 66.6765 9.37648 66.9288 9.37648H68.2877C68.5315 9.37648 68.6536 9.50699 68.6536 9.76829V10.3561C68.6536 10.9047 69.0366 11.1791 69.803 11.1791C70.5782 11.1791 70.9659 10.9047 70.9659 10.3561V10.0948C70.9659 9.92938 70.8894 9.78358 70.7374 9.65716C70.5847 9.53102 70.2863 9.38495 69.8421 9.21949L67.9611 8.51397C67.6215 8.38346 67.334 8.15275 67.0989 7.82183C66.8636 7.49064 66.7461 7.14252 66.7461 6.77666V6.01899C66.7461 5.296 67.0118 4.7431 67.5429 4.36004C68.0745 3.9767 68.8496 3.78503 69.8683 3.78503C70.8785 3.78503 71.6515 3.97888 72.1872 4.36632C72.7229 4.75402 72.9907 5.30473 72.9907 6.01899V6.50226C72.9907 6.76355 72.8646 6.89433 72.6117 6.89433H71.2531C71.0093 6.89433 70.8875 6.76355 70.8875 6.50226ZM76.544 4.2814V12.3809C76.544 12.6422 76.4222 12.773 76.1781 12.773H74.7673C74.5148 12.773 74.3886 12.6422 74.3886 12.3809V4.2814C74.3886 4.02011 74.5148 3.8896 74.7673 3.8896H76.1781C76.4222 3.8896 76.544 4.02011 76.544 4.2814ZM84.7874 4.2814V12.3809C84.7874 12.6422 84.6653 12.773 84.4215 12.773H83.141C82.9843 12.773 82.8669 12.7119 82.7885 12.5901L80.6982 9.11519C80.524 8.82769 80.3369 8.43561 80.1365 7.93951V12.3809C80.1365 12.6422 80.0145 12.773 79.7709 12.773H78.4904C78.2379 12.773 78.1114 12.6422 78.1114 12.3809V4.2814C78.1114 4.02011 78.2379 3.8896 78.4904 3.8896H79.7709C79.9277 3.8896 80.0363 3.94175 80.0972 4.04632L82.3052 7.7432C82.4882 8.08285 82.6403 8.40967 82.7623 8.72311V4.2814C82.7623 4.02011 82.8887 3.8896 83.141 3.8896H84.4215C84.6653 3.8896 84.7874 4.02011 84.7874 4.2814ZM91.3323 12.773H86.7339C86.4813 12.773 86.3549 12.6422 86.3549 12.3809V4.2814C86.3549 4.02011 86.4813 3.8896 86.7339 3.8896H91.2018C91.4628 3.8896 91.5933 4.01137 91.5933 4.25546V5.27443C91.5933 5.52698 91.4628 5.65312 91.2018 5.65312H88.5105V7.35167H90.9926C91.2536 7.35167 91.3844 7.47344 91.3844 7.71726V8.67096C91.3844 8.92325 91.2536 9.04966 90.9926 9.04966H88.5105V11.0092H91.3323C91.5933 11.0092 91.7241 11.1313 91.7241 11.3751V12.3941C91.7241 12.6466 91.5933 12.773 91.3323 12.773ZM97.0018 6.50226V6.30622C97.0018 5.7577 96.6622 5.4833 95.9831 5.4833C95.2948 5.4833 94.9508 5.7577 94.9508 6.30622V6.437C94.9508 6.70703 95.0903 6.89433 95.3691 6.99891L97.5637 7.7432C98.0863 7.91766 98.489 8.17677 98.7719 8.5208C99.0553 8.86482 99.1965 9.26317 99.1965 9.71614V10.6436C99.1965 11.3489 98.9114 11.8977 98.3408 12.2895C97.7704 12.6816 96.9672 12.8776 95.9307 12.8776C94.8943 12.8776 94.0907 12.6816 93.5204 12.2895C92.9497 11.8977 92.6647 11.3489 92.6647 10.6436V9.76829C92.6647 9.50699 92.7911 9.37648 93.0437 9.37648H94.4023C94.6461 9.37648 94.7679 9.50699 94.7679 9.76829V10.3561C94.7679 10.9047 95.1512 11.1791 95.9176 11.1791C96.6928 11.1791 97.0802 10.9047 97.0802 10.3561V10.0948C97.0802 9.92938 97.004 9.78358 96.8517 9.65716C96.6993 9.53102 96.4009 9.38495 95.9569 9.21949L94.0755 8.51397C93.7358 8.38346 93.4486 8.15275 93.2135 7.82183C92.9784 7.49064 92.8607 7.14252 92.8607 6.77666V6.01899C92.8607 5.296 93.1264 4.7431 93.6577 4.36004C94.1888 3.9767 94.9639 3.78503 95.9831 3.78503C96.9934 3.78503 97.7663 3.97888 98.3017 4.36632C98.8374 4.75402 99.105 5.30473 99.105 6.01899V6.50226C99.105 6.76355 98.9789 6.89433 98.726 6.89433H97.3677C97.1239 6.89433 97.0018 6.76355 97.0018 6.50226ZM104.54 6.50226V6.30622C104.54 5.7577 104.2 5.4833 103.521 5.4833C102.833 5.4833 102.489 5.7577 102.489 6.30622V6.437C102.489 6.70703 102.628 6.89433 102.907 6.99891L105.101 7.7432C105.624 7.91766 106.027 8.17677 106.31 8.5208C106.593 8.86482 106.734 9.26317 106.734 9.71614V10.6436C106.734 11.3489 106.449 11.8977 105.879 12.2895C105.308 12.6816 104.505 12.8776 103.469 12.8776C102.432 12.8776 101.629 12.6816 101.058 12.2895C100.488 11.8977 100.203 11.3489 100.203 10.6436V9.76829C100.203 9.50699 100.329 9.37648 100.581 9.37648H101.94C102.184 9.37648 102.306 9.50699 102.306 9.76829V10.3561C102.306 10.9047 102.689 11.1791 103.456 11.1791C104.231 11.1791 104.618 10.9047 104.618 10.3561V10.0948C104.618 9.92938 104.542 9.78358 104.39 9.65716C104.237 9.53102 103.939 9.38495 103.495 9.21949L101.614 8.51397C101.274 8.38346 100.986 8.15275 100.751 7.82183C100.516 7.49064 100.398 7.14252 100.398 6.77666V6.01899C100.398 5.296 100.664 4.7431 101.195 4.36004C101.727 3.9767 102.502 3.78503 103.521 3.78503C104.531 3.78503 105.304 3.97888 105.84 4.36632C106.375 4.75402 106.643 5.30473 106.643 6.01899V6.50226C106.643 6.76355 106.517 6.89433 106.264 6.89433H104.906C104.662 6.89433 104.54 6.76355 104.54 6.50226Z" fill="white"/>
<path fill-rule="evenodd" clip-rule="evenodd" d="M51.1399 16.5925H56.6398C56.9011 16.5925 57.0316 16.7143 57.0316 16.9584V17.9774C57.0316 18.2299 56.9011 18.3561 56.6398 18.3561H54.9678V25.0842C54.9678 25.3455 54.8457 25.476 54.6019 25.476H53.1909C52.9383 25.476 52.8122 25.3455 52.8122 25.0842V18.3561H51.1399C50.8786 18.3561 50.748 18.2299 50.748 17.9774V16.9584C50.748 16.7143 50.8786 16.5925 51.1399 16.5925ZM60.871 25.5803C59.8256 25.5803 59.0092 25.3801 58.4214 24.9796C57.8335 24.5788 57.5395 24.0346 57.5395 23.3463V18.7219C57.5395 18.0339 57.8335 17.4895 58.4214 17.0889C59.0092 16.6884 59.8256 16.488 60.871 16.488C61.9247 16.488 62.7454 16.6884 63.3333 17.0889C63.9214 17.4895 64.2152 18.0339 64.2152 18.7219V23.3463C64.2152 24.0346 63.9214 24.5788 63.3333 24.9796C62.7454 25.3801 61.9247 25.5803 60.871 25.5803ZM60.0085 23.5948C60.2177 23.7427 60.5052 23.8167 60.871 23.8167C61.2364 23.8167 61.5261 23.7427 61.7396 23.5948C61.9531 23.4468 62.0596 23.2376 62.0596 22.9679V19.1009C62.0596 18.8306 61.9531 18.622 61.7396 18.4737C61.5261 18.3258 61.2364 18.2515 60.871 18.2515C60.5052 18.2515 60.2177 18.3258 60.0085 18.4737C59.7997 18.622 59.6951 18.8306 59.6951 19.1009V22.9679C59.6951 23.2376 59.7997 23.4468 60.0085 23.5948ZM67.3619 16.5925H72.8619C73.1232 16.5925 73.2537 16.7143 73.2537 16.9584V17.9774C73.2537 18.2299 73.1232 18.3561 72.8619 18.3561H71.1898V25.0842C71.1898 25.3455 71.0675 25.476 70.8239 25.476H69.4132C69.1603 25.476 69.0342 25.3455 69.0342 25.0842V18.3561H67.3619C67.1006 18.3561 66.9701 18.2299 66.9701 17.9774V16.9584C66.9701 16.7143 67.1006 16.5925 67.3619 16.5925ZM76.897 22.1968H76.0348V25.0842C76.0348 25.3455 75.9127 25.476 75.6689 25.476H74.2582C74.0056 25.476 73.8792 25.3455 73.8792 25.0842V16.9846C73.8792 16.7233 74.0056 16.5925 74.2582 16.5925H77.08C78.1251 16.5925 78.9393 16.7927 79.5228 17.1935C80.1063 17.594 80.3981 18.1385 80.3981 18.8265V19.9631C80.3981 20.8513 79.9452 21.4872 79.0395 21.8703L80.3198 25.0842C80.3632 25.1975 80.3501 25.2906 80.2805 25.3648C80.2111 25.4388 80.1019 25.476 79.9539 25.476H78.4386C78.2469 25.476 78.1077 25.3455 78.0203 25.0842L76.897 22.1968ZM77.08 18.3561H76.0348V20.4333H77.08C77.4458 20.4333 77.7352 20.3593 77.9485 20.2113C78.162 20.0631 78.2685 19.8539 78.2685 19.5842V19.2052C78.2685 18.9352 78.162 18.726 77.9485 18.578C77.7352 18.4301 77.4458 18.3561 77.08 18.3561ZM83.6322 16.5925H85.1216C85.3564 16.5925 85.5178 16.7233 85.6046 16.9846L87.93 25.0842C87.9912 25.3455 87.8954 25.476 87.6428 25.476H86.1927C85.9489 25.476 85.7966 25.3455 85.7354 25.0842L85.396 23.8298H83.227L82.8874 25.0842C82.8268 25.3455 82.6741 25.476 82.4306 25.476H81.111C80.8585 25.476 80.7624 25.3455 80.8235 25.0842L83.1487 16.9846C83.236 16.7233 83.3971 16.5925 83.6322 16.5925ZM84.1458 21.4261L83.9629 22.1316H85.191L85.0211 21.4261C84.8467 20.6771 84.7074 19.7625 84.6031 18.6826C84.5685 19.0747 84.5027 19.5492 84.4071 20.1068C84.3025 20.7424 84.2157 21.1822 84.1458 21.4261ZM91.5996 25.476H90.1888C89.9535 25.476 89.7924 25.3455 89.7053 25.0842L87.3408 16.9846C87.2797 16.7233 87.3755 16.5925 87.6281 16.5925H89.1696C89.4137 16.5925 89.5658 16.7233 89.6269 16.9846L90.6066 20.6424C90.7286 21.1126 90.8376 21.8222 90.9331 22.7718C91.0639 21.7616 91.186 21.0517 91.299 20.6424L92.292 16.9846C92.3529 16.7233 92.5053 16.5925 92.7491 16.5925H94.1599C94.4124 16.5925 94.5085 16.7233 94.4474 16.9846L92.0829 25.0842C91.9958 25.3455 91.8347 25.476 91.5996 25.476ZM100.312 25.476H95.7131C95.4603 25.476 95.3342 25.3455 95.3342 25.0842V16.9846C95.3342 16.7233 95.4603 16.5925 95.7131 16.5925H100.181C100.442 16.5925 100.573 16.7143 100.573 16.9584V17.9774C100.573 18.2299 100.442 18.3561 100.181 18.3561H97.4898V20.0546H99.9719C100.233 20.0546 100.364 20.1764 100.364 20.4205V21.3739C100.364 21.6265 100.233 21.7526 99.9719 21.7526H97.4898V23.7122H100.312C100.573 23.7122 100.703 23.8342 100.703 24.078V25.097C100.703 25.3495 100.573 25.476 100.312 25.476ZM103.955 16.9846V23.7122H106.515C106.776 23.7122 106.907 23.8342 106.907 24.078V25.097C106.907 25.3495 106.776 25.476 106.515 25.476H102.126C101.908 25.476 101.799 25.3455 101.799 25.0842V16.9846C101.799 16.7233 101.925 16.5925 102.178 16.5925H103.589C103.833 16.5925 103.955 16.7233 103.955 16.9846Z" fill="white"/>
<path d="M32.1565 0.00464058C32.157 0.00436592 22.3144 0.00273323 19.4593 0.00273323C19.1052 0.00273323 18.816 0.292145 18.816 0.645996C18.816 2.00925 18.8166 3.37197 18.8166 4.7344H11.3619C10.5909 4.73358 9.96018 5.36347 9.96154 6.13534C9.96154 6.90966 10.589 7.53464 11.3619 7.53464C17.8678 7.53464 24.3744 7.55048 30.8806 7.55048C31.6562 7.55048 32.2804 8.17545 32.2804 8.94978C32.2804 9.72328 31.6562 10.3507 30.8806 10.3507H22.25L16.4589 10.3663C15.7927 10.3663 15.1363 10.3633 14.4718 10.3633C13.6961 10.3633 13.0717 10.9874 13.0717 11.7634C13.0717 12.5301 13.689 13.1531 14.4535 13.1627L14.4893 13.1638C14.5613 13.1651 14.6337 13.1643 14.7058 13.1643H18.8166V13.181C19.8454 13.0696 20.3589 13.8251 20.3573 14.5803C20.3568 15.2596 19.9385 15.9403 19.1068 15.9883C18.9755 15.9951 18.7505 15.9905 18.6121 15.9905H2.31906C1.5431 15.9905 0.918945 16.6149 0.918945 17.3906C0.918945 18.1636 1.54528 18.7907 2.31906 18.7907C11.9402 18.7907 21.5608 18.8052 31.1823 18.8052C31.9536 18.8027 32.5848 19.4332 32.5824 20.2045C32.5824 20.9785 31.9541 21.6052 31.1823 21.6052H22.1511C20.4247 21.6052 18.7297 21.6202 17.0113 21.6202H8.72907C7.95721 21.6202 7.33059 22.2468 7.33141 23.0203C7.33141 23.793 7.95639 24.4204 8.72907 24.4204H18.8166C18.8166 25.079 18.816 25.7364 18.816 26.395V28.357C18.816 28.7109 19.1052 29 19.4593 29H21.4959C25.3273 29 29.1651 28.9945 33.0026 28.9945C40.6685 29.2703 44.5811 18.9575 38.8687 14.0454C43.3803 8.83155 39.3416 0.000818253 32.4289 0C32.3391 0 32.249 0.00163651 32.1565 0.00464058ZM27.9536 13.2503C28.8623 13.2356 29.3166 13.943 29.3166 14.6507C29.3166 15.357 28.8623 16.0639 27.9536 16.05H26.2526C25.344 16.0639 24.8905 15.357 24.8897 14.6507C24.8888 13.943 25.344 13.2356 26.2526 13.2503H27.9536ZM5.72325 10.3633C4.94756 10.3633 4.3234 10.9874 4.3234 11.7634C4.3234 12.5301 4.94073 13.1531 5.7055 13.1627L5.74099 13.1638C5.8128 13.1651 5.88543 13.1643 5.95751 13.1643C6.77852 13.1643 7.61455 13.1818 8.43365 13.1638L8.46914 13.1627C9.23418 13.1531 9.85124 12.5301 9.85124 11.7634C9.85124 10.9874 9.22681 10.3633 8.45085 10.3633H5.72325Z" fill="url(#paint0_linear_478_7233)"/>
<defs>
<linearGradient id="paint0_linear_478_7233" x1="6.17607" y1="1.97075" x2="40.0284" y2="24.5142" gradientUnits="userSpaceOnUse">
<stop stop-color="#F28F38"/>
<stop offset="0.233358" stop-color="#F28F38"/>
<stop offset="0.235262" stop-color="#F28F38"/>
<stop offset="1" stop-color="#DC324E"/>
</linearGradient>
</defs>
</svg>
