<svg width="180" height="49" viewBox="0 0 180 49" fill="none" xmlns="http://www.w3.org/2000/svg">
<path fill-rule="evenodd" clip-rule="evenodd" d="M89.9481 21.582H85.07C84.6428 21.582 84.4297 21.361 84.4297 20.9195V7.23409C84.4297 6.7926 84.6428 6.57208 85.07 6.57208H89.2197C91.0443 6.57208 92.4347 6.86641 93.3911 7.45507C94.3483 8.04327 94.8263 8.89719 94.8263 10.0155V11.2297C94.8263 12.2594 94.3262 13.0764 93.3256 13.6798C94.8115 14.3123 95.5547 15.1953 95.5547 16.3283V17.9615C95.5547 19.1097 95.0689 19.9996 94.0978 20.6326C93.1267 21.2651 91.7432 21.582 89.9481 21.582ZM89.2197 9.44157H88.0719V12.6202H89.2197C89.8379 12.6202 90.3269 12.4914 90.6877 12.2336C91.048 11.9766 91.2283 11.6191 91.2283 11.1633V10.5894C91.2283 10.1774 91.0775 9.88306 90.7758 9.70637C90.4741 9.52968 89.9555 9.44157 89.2197 9.44157ZM89.9481 15.3129H88.0719V18.712H89.9481C90.5811 18.712 91.0738 18.5912 91.4272 18.3481C91.7801 18.1054 91.9568 17.7557 91.9568 17.2999V16.5936C91.9568 16.2107 91.769 15.9016 91.394 15.6663C91.0184 15.4306 90.5363 15.3129 89.9481 15.3129ZM101.183 7.23409V17.3437C101.183 17.8 101.36 18.1529 101.713 18.4034C102.066 18.6535 102.552 18.7785 103.17 18.7785C103.788 18.7785 104.277 18.6535 104.637 18.4034C104.999 18.1529 105.179 17.8 105.179 17.3437V7.23409C105.179 6.7926 105.392 6.57208 105.819 6.57208H108.203C108.615 6.57208 108.821 6.7926 108.821 7.23409V17.9841C108.821 19.1466 108.324 20.0661 107.331 20.7433C106.337 21.4196 104.951 21.7587 103.17 21.7587C101.404 21.7587 100.025 21.4196 99.0313 20.7433C98.0381 20.0661 97.5408 19.1466 97.5408 17.9841V7.23409C97.5408 6.7926 97.7544 6.57208 98.1811 6.57208H100.565C100.977 6.57208 101.183 6.7926 101.183 7.23409ZM118.224 10.9866V10.6553C118.224 9.72852 117.65 9.26488 116.502 9.26488C115.34 9.26488 114.759 9.72852 114.759 10.6553V10.8763C114.759 11.3326 114.994 11.649 115.465 11.8257L119.173 13.0833C120.056 13.3781 120.737 13.8159 121.215 14.3972C121.693 14.9785 121.932 15.6516 121.932 16.4169V17.9841C121.932 19.1757 121.45 20.103 120.487 20.765C119.522 21.4275 118.165 21.7587 116.414 21.7587C114.663 21.7587 113.305 21.4275 112.342 20.765C111.378 20.103 110.896 19.1757 110.896 17.9841V16.505C110.896 16.0635 111.109 15.843 111.535 15.843H113.831C114.243 15.843 114.45 16.0635 114.45 16.505V17.4983C114.45 18.4251 115.097 18.8887 116.392 18.8887C117.701 18.8887 118.357 18.4251 118.357 17.4983V17.0568C118.357 16.7772 118.227 16.5309 117.97 16.3173C117.713 16.1041 117.208 15.8573 116.458 15.5778L113.28 14.3857C112.706 14.1652 112.22 13.7753 111.823 13.2162C111.425 12.6566 111.227 12.0684 111.227 11.4502V10.17C111.227 8.9484 111.676 8.0142 112.573 7.36695C113.471 6.71924 114.781 6.39539 116.502 6.39539C118.209 6.39539 119.515 6.72293 120.42 7.37757C121.325 8.03266 121.778 8.96317 121.778 10.17V10.9866C121.778 11.4281 121.565 11.649 121.137 11.649H118.842C118.43 11.649 118.224 11.4281 118.224 10.9866ZM127.782 7.23409V20.9195C127.782 21.361 127.576 21.582 127.163 21.582H124.78C124.353 21.582 124.14 21.361 124.14 20.9195V7.23409C124.14 6.7926 124.353 6.57208 124.78 6.57208H127.163C127.576 6.57208 127.782 6.7926 127.782 7.23409ZM141.71 7.23409V20.9195C141.71 21.361 141.504 21.582 141.092 21.582H138.928C138.663 21.582 138.465 21.4787 138.333 21.2729L134.801 15.4015C134.506 14.9157 134.19 14.2533 133.852 13.415V20.9195C133.852 21.361 133.646 21.582 133.234 21.582H131.07C130.644 21.582 130.43 21.361 130.43 20.9195V7.23409C130.43 6.7926 130.644 6.57208 131.07 6.57208H133.234C133.499 6.57208 133.682 6.66019 133.785 6.83688L137.516 13.0833C137.825 13.6572 138.082 14.2094 138.288 14.7391V7.23409C138.288 6.7926 138.502 6.57208 138.928 6.57208H141.092C141.504 6.57208 141.71 6.7926 141.71 7.23409ZM152.769 21.582H144.999C144.572 21.582 144.359 21.361 144.359 20.9195V7.23409C144.359 6.7926 144.572 6.57208 144.999 6.57208H152.548C152.989 6.57208 153.21 6.77783 153.21 7.19026V8.91196C153.21 9.33869 152.989 9.55183 152.548 9.55183H148.001V12.4218H152.195C152.636 12.4218 152.857 12.6275 152.857 13.0395V14.6509C152.857 15.0772 152.636 15.2908 152.195 15.2908H148.001V18.6018H152.769C153.21 18.6018 153.431 18.808 153.431 19.22V20.9417C153.431 21.3684 153.21 21.582 152.769 21.582ZM162.348 10.9866V10.6553C162.348 9.72852 161.774 9.26488 160.627 9.26488C159.464 9.26488 158.883 9.72852 158.883 10.6553V10.8763C158.883 11.3326 159.119 11.649 159.59 11.8257L163.298 13.0833C164.181 13.3781 164.861 13.8159 165.339 14.3972C165.818 14.9785 166.057 15.6516 166.057 16.4169V17.9841C166.057 19.1757 165.575 20.103 164.611 20.765C163.647 21.4275 162.29 21.7587 160.539 21.7587C158.787 21.7587 157.43 21.4275 156.466 20.765C155.502 20.103 155.02 19.1757 155.02 17.9841V16.505C155.02 16.0635 155.234 15.843 155.66 15.843H157.956C158.368 15.843 158.574 16.0635 158.574 16.505V17.4983C158.574 18.4251 159.221 18.8887 160.516 18.8887C161.826 18.8887 162.481 18.4251 162.481 17.4983V17.0568C162.481 16.7772 162.352 16.5309 162.095 16.3173C161.837 16.1041 161.333 15.8573 160.583 15.5778L157.404 14.3857C156.83 14.1652 156.345 13.7753 155.947 13.2162C155.55 12.6566 155.351 12.0684 155.351 11.4502V10.17C155.351 8.9484 155.8 8.0142 156.698 7.36695C157.595 6.71924 158.905 6.39539 160.627 6.39539C162.334 6.39539 163.64 6.72293 164.545 7.37757C165.45 8.03266 165.902 8.96317 165.902 10.17V10.9866C165.902 11.4281 165.689 11.649 165.262 11.649H162.967C162.555 11.649 162.348 11.4281 162.348 10.9866ZM175.085 10.9866V10.6553C175.085 9.72852 174.511 9.26488 173.363 9.26488C172.201 9.26488 171.619 9.72852 171.619 10.6553V10.8763C171.619 11.3326 171.855 11.649 172.326 11.8257L176.034 13.0833C176.917 13.3781 177.598 13.8159 178.076 14.3972C178.554 14.9785 178.793 15.6516 178.793 16.4169V17.9841C178.793 19.1757 178.311 20.103 177.348 20.765C176.383 21.4275 175.026 21.7587 173.275 21.7587C171.524 21.7587 170.166 21.4275 169.202 20.765C168.239 20.103 167.757 19.1757 167.757 17.9841V16.505C167.757 16.0635 167.97 15.843 168.396 15.843H170.692C171.104 15.843 171.311 16.0635 171.311 16.505V17.4983C171.311 18.4251 171.957 18.8887 173.253 18.8887C174.563 18.8887 175.217 18.4251 175.217 17.4983V17.0568C175.217 16.7772 175.088 16.5309 174.831 16.3173C174.574 16.1041 174.069 15.8573 173.319 15.5778L170.141 14.3857C169.566 14.1652 169.081 13.7753 168.683 13.2162C168.286 12.6566 168.087 12.0684 168.087 11.4502V10.17C168.087 8.9484 168.536 8.0142 169.434 7.36695C170.332 6.71924 171.641 6.39539 173.363 6.39539C175.07 6.39539 176.376 6.72293 177.281 7.37757C178.186 8.03266 178.639 8.96317 178.639 10.17V10.9866C178.639 11.4281 178.425 11.649 177.999 11.649H175.703C175.291 11.649 175.085 11.4281 175.085 10.9866Z" fill="white"/>
<path fill-rule="evenodd" clip-rule="evenodd" d="M84.8573 28.0357H94.1504C94.5919 28.0357 94.8124 28.2414 94.8124 28.6539V30.3756C94.8124 30.8023 94.5919 31.0154 94.1504 31.0154H91.3252V42.3836C91.3252 42.8251 91.119 43.0456 90.707 43.0456H88.3229C87.8961 43.0456 87.683 42.8251 87.683 42.3836V31.0154H84.8573C84.4158 31.0154 84.1953 30.8023 84.1953 30.3756V28.6539C84.1953 28.2414 84.4158 28.0357 84.8573 28.0357ZM101.3 43.2218C99.5332 43.2218 98.1539 42.8837 97.1606 42.2069C96.1674 41.5297 95.6705 40.6102 95.6705 39.4472V31.6336C95.6705 30.4711 96.1674 29.5512 97.1606 28.8744C98.1539 28.1976 99.5332 27.859 101.3 27.859C103.08 27.859 104.467 28.1976 105.46 28.8744C106.454 29.5512 106.95 30.4711 106.95 31.6336V39.4472C106.95 40.6102 106.454 41.5297 105.46 42.2069C104.467 42.8837 103.08 43.2218 101.3 43.2218ZM99.8423 39.867C100.196 40.1171 100.681 40.2421 101.3 40.2421C101.917 40.2421 102.406 40.1171 102.767 39.867C103.128 39.617 103.308 39.2636 103.308 38.8078V32.2739C103.308 31.8172 103.128 31.4648 102.767 31.2143C102.406 30.9642 101.917 30.8387 101.3 30.8387C100.681 30.8387 100.196 30.9642 99.8423 31.2143C99.4894 31.4648 99.3127 31.8172 99.3127 32.2739V38.8078C99.3127 39.2636 99.4894 39.617 99.8423 39.867ZM112.267 28.0357H121.56C122.002 28.0357 122.222 28.2414 122.222 28.6539V30.3756C122.222 30.8023 122.002 31.0154 121.56 31.0154H118.735V42.3836C118.735 42.8251 118.528 43.0456 118.117 43.0456H115.733C115.306 43.0456 115.093 42.8251 115.093 42.3836V31.0154H112.267C111.825 31.0154 111.605 30.8023 111.605 30.3756V28.6539C111.605 28.2414 111.825 28.0357 112.267 28.0357ZM128.378 37.505H126.921V42.3836C126.921 42.8251 126.715 43.0456 126.303 43.0456H123.919C123.493 43.0456 123.279 42.8251 123.279 42.3836V28.6981C123.279 28.2567 123.493 28.0357 123.919 28.0357H128.687C130.453 28.0357 131.829 28.3738 132.815 29.0511C133.801 29.7278 134.294 30.6477 134.294 31.8103V33.7308C134.294 35.2315 133.528 36.306 131.998 36.9532L134.161 42.3836C134.235 42.575 134.213 42.7324 134.095 42.8578C133.978 42.9829 133.793 43.0456 133.543 43.0456H130.983C130.659 43.0456 130.424 42.8251 130.276 42.3836L128.378 37.505ZM128.687 31.0154H126.921V34.5252H128.687C129.305 34.5252 129.794 34.4002 130.155 34.1502C130.515 33.8997 130.695 33.5463 130.695 33.0905V32.4502C130.695 31.9939 130.515 31.6405 130.155 31.3905C129.794 31.1404 129.305 31.0154 128.687 31.0154ZM139.758 28.0357H142.275C142.672 28.0357 142.944 28.2567 143.091 28.6981L147.02 42.3836C147.123 42.8251 146.961 43.0456 146.535 43.0456H144.085C143.673 43.0456 143.415 42.8251 143.312 42.3836L142.738 40.2642H139.074L138.5 42.3836C138.397 42.8251 138.139 43.0456 137.728 43.0456H135.498C135.072 43.0456 134.909 42.8251 135.012 42.3836L138.941 28.6981C139.089 28.2567 139.361 28.0357 139.758 28.0357ZM140.626 36.2026L140.317 37.3947H142.392L142.105 36.2026C141.81 34.9372 141.575 33.3917 141.399 31.5672C141.34 32.2297 141.229 33.0314 141.067 33.9735C140.891 35.0475 140.744 35.7907 140.626 36.2026ZM153.22 43.0456H150.837C150.439 43.0456 150.167 42.8251 150.02 42.3836L146.024 28.6981C145.921 28.2567 146.083 28.0357 146.51 28.0357H149.115C149.527 28.0357 149.784 28.2567 149.887 28.6981L151.542 34.8786C151.749 35.673 151.933 36.872 152.094 38.4766C152.315 36.7696 152.521 35.5702 152.712 34.8786L154.39 28.6981C154.493 28.2567 154.751 28.0357 155.163 28.0357H157.546C157.973 28.0357 158.135 28.2567 158.032 28.6981L154.037 42.3836C153.89 42.8251 153.618 43.0456 153.22 43.0456ZM167.941 43.0456H160.171C159.744 43.0456 159.53 42.8251 159.53 42.3836V28.6981C159.53 28.2567 159.744 28.0357 160.171 28.0357H167.72C168.161 28.0357 168.382 28.2414 168.382 28.6539V30.3756C168.382 30.8023 168.161 31.0154 167.72 31.0154H163.173V33.8854H167.367C167.808 33.8854 168.029 34.0911 168.029 34.5036V36.1145C168.029 36.5413 167.808 36.7544 167.367 36.7544H163.173V40.0654H167.941C168.382 40.0654 168.603 40.2716 168.603 40.6836V42.4053C168.603 42.832 168.382 43.0456 167.941 43.0456ZM174.096 28.6981V40.0654H178.422C178.864 40.0654 179.085 40.2716 179.085 40.6836V42.4053C179.085 42.832 178.864 43.0456 178.422 43.0456H171.006C170.638 43.0456 170.454 42.8251 170.454 42.3836V28.6981C170.454 28.2567 170.668 28.0357 171.094 28.0357H173.478C173.89 28.0357 174.096 28.2567 174.096 28.6981Z" fill="white"/>
<path d="M52.7806 0.00784302C52.7815 0.00738144 36.151 0.0046196 31.3268 0.0046196C30.7285 0.0046196 30.2399 0.493626 30.2399 1.09151C30.2399 3.39495 30.2408 5.69746 30.2408 7.99951H17.6451C16.3422 7.99812 15.2766 9.06242 15.2789 10.3666C15.2789 11.6749 16.339 12.7309 17.6451 12.7309C28.6377 12.7309 39.6317 12.7577 50.6248 12.7577C51.9355 12.7577 52.9901 13.8137 52.9901 15.122C52.9901 16.429 51.9355 17.4891 50.6248 17.4891H36.0421L26.2572 17.5154C25.1316 17.5154 24.0225 17.5103 22.8996 17.5103C21.589 17.5103 20.5339 18.565 20.5339 19.8761C20.5339 21.1715 21.577 22.2242 22.8687 22.2404L22.9292 22.2422C23.051 22.2445 23.1732 22.2432 23.295 22.2432H30.2408V22.2713C31.9791 22.0831 32.8469 23.3596 32.8441 24.6356C32.8432 25.7834 32.1364 26.9335 30.7312 27.0147C30.5093 27.0263 30.1292 27.0184 29.8953 27.0184H2.36571C1.05461 27.0184 0 28.0735 0 29.3841C0 30.6902 1.0583 31.7498 2.36571 31.7498C18.6222 31.7498 34.8777 31.7743 51.1346 31.7743C52.4378 31.7701 53.5044 32.8354 53.5003 34.1386C53.5003 35.4465 52.4388 36.5053 51.1346 36.5053H35.8751C32.9581 36.5053 30.0941 36.5306 27.1905 36.5306H13.1964C11.8922 36.5306 10.8335 37.5894 10.8349 38.8964C10.8349 40.2019 11.8909 41.2621 13.1964 41.2621H30.2408C30.2408 42.3748 30.2399 43.4857 30.2399 44.5984V47.9136C30.2399 48.5114 30.7285 49 31.3268 49H34.7679C41.2418 49 47.7263 48.9908 54.2103 48.9908C67.1631 49.4567 73.774 32.0317 64.122 23.7319C71.7451 14.9223 64.921 0.00138474 53.241 0C53.0892 0 52.937 0.00276947 52.7806 0.00784302ZM45.6793 22.3885C47.2146 22.3636 47.9823 23.5589 47.9823 24.7547C47.9823 25.9481 47.2146 27.1425 45.6793 27.119H42.8052C41.2699 27.1425 40.5036 25.9481 40.5022 24.7547C40.5009 23.5589 41.2699 22.3636 42.8052 22.3885H45.6793ZM8.11761 17.5103C6.80696 17.5103 5.75236 18.565 5.75236 19.8761C5.75236 21.1715 6.79543 22.2242 8.08762 22.2404L8.1476 22.2422C8.26893 22.2445 8.39164 22.2432 8.51343 22.2432C9.90066 22.2432 11.3133 22.2727 12.6973 22.2422L12.7572 22.2404C14.0499 22.2242 15.0925 21.1715 15.0925 19.8761C15.0925 18.565 14.0374 17.5103 12.7263 17.5103H8.11761Z" fill="url(#paint0_linear_478_7221)"/>
<defs>
<linearGradient id="paint0_linear_478_7221" x1="8.88272" y1="3.32988" x2="66.0815" y2="41.4206" gradientUnits="userSpaceOnUse">
<stop stop-color="#F28F38"/>
<stop offset="0.233358" stop-color="#F28F38"/>
<stop offset="0.235262" stop-color="#F28F38"/>
<stop offset="1" stop-color="#DC324E"/>
</linearGradient>
</defs>
</svg>
